# xmcd
#
# Track frame offsets:
#	150
#	12045
#	45771
#	70463
#	91256
#	116800
#	152199
#	170250
#	186259
#	210804
#	231999
#	250659
#	299857
#
# Disc length: 4482 seconds
#
# Revision: 1
# Processed by: cddbd v1.4PL0 Copyright (c) Steve Scherf et al.
# Submitted via: audiograbber 1.82.02
#
DISCID=ad11800d
DTITLE=Alvin Lee and Ten Years After - Pure Blues
DYEAR=1900
DGENRE=Blues
TTITLE0=Alvin Lee and Ten Years After - Don't Want You Women
TTITLE1=Alvin Lee and Ten Years After - The Bluest Blues
TTITLE2=Alvin Lee and Ten Years After - I Woke Up This Morning
TTITLE3=Alvin Lee and Ten Years After - Real Life Blues
TTITLE4=Alvin Lee and Ten Years After - Pure Blues - 05 - The Stomp
TTITLE5=Alvin Lee and Ten Years After - Slow Blues In 'C'
TTITLE6=Alvin Lee and Ten Years After - Wake Up Moma
TTITLE7=Alvin Lee and Ten Years After - Talk Don't Bother Me
TTITLE8=Alvin Lee and Ten Years After - Every Blues You've Ever Heard
TTITLE9=Alvin Lee and Ten Years After - I Get All Shook Up
TTITLE10=Alvin Lee and Ten Years After - Lost In Love
TTITLE11=Alvin Lee and Ten Years After - Help Me
TTITLE12=Alvin Lee and Ten Years After - Outside My Window
EXTD=
EXTT0=
EXTT1=
EXTT2=
EXTT3=
EXTT4=
EXTT5=
EXTT6=
EXTT7=
EXTT8=
EXTT9=
EXTT10=
EXTT11=
EXTT12=
PLAYORDER=
